<?xml version="1.0" standalone="no"?>
<!DOCTYPE svg PUBLIC "-//W3C//DTD SVG 20010904//EN"
 "http://www.w3.org/TR/2001/REC-SVG-20010904/DTD/svg10.dtd">
<svg version="1.0" xmlns="http://www.w3.org/2000/svg"
 width="64.000000pt" height="64.000000pt" viewBox="0 0 64.000000 64.000000"
 preserveAspectRatio="xMidYMid meet">

<g transform="translate(0.000000,64.000000) scale(0.100000,-0.100000)"
fill="#000000" stroke="none">
<path d="M210 624 c0 -9 -9 -18 -20 -21 -11 -3 -20 -9 -20 -14 0 -13 34 -11
48 3 15 15 16 48 2 48 -5 0 -10 -7 -10 -16z"/>
<path d="M250 622 c0 -10 5 -23 12 -30 15 -15 48 -16 48 -2 0 6 -7 10 -16 10
-9 0 -18 9 -21 20 -7 25 -23 26 -23 2z"/>
<path d="M40 528 c0 -18 5 -53 11 -77 9 -39 7 -48 -10 -72 -27 -36 -50 -121
-35 -126 7 -2 7 -18 0 -55 -8 -40 -8 -52 2 -56 6 -2 12 -20 12 -39 0 -32 2
-35 22 -30 14 4 43 -4 74 -19 143 -70 265 -70 408 0 31 15 60 23 74 19 20 -5
22 -2 22 30 0 19 6 37 12 39 10 4 10 16 2 56 -7 37 -7 53 0 55 15 5 -8 90 -35
126 -17 24 -19 33 -10 72 6 24 11 59 11 77 0 28 -3 32 -25 32 -33 0 -94 -26
-120 -50 -19 -17 -30 -19 -103 -13 -62 4 -82 10 -82 20 0 8 9 17 20 20 25 7
26 23 1 23 -25 0 -45 -25 -38 -50 4 -16 0 -20 -23 -20 -15 0 -34 7 -41 17 -19
22 -88 53 -121 53 -25 0 -28 -4 -28 -32z m66 -84 c-24 -17 -36 -4 -36 41 l0
30 28 -28 c26 -27 27 -28 8 -43z m457 1 c-8 -13 -11 -13 -28 -1 -20 14 -20 15
5 41 l25 27 3 -26 c2 -14 -1 -32 -5 -41z m-171 -9 c2 -26 7 -31 28 -31 18 0
26 6 28 23 4 27 4 27 50 3 48 -25 87 -66 106 -113 20 -46 20 -48 1 -48 -17 0
-18 -5 -6 -28 4 -9 11 -32 14 -49 5 -26 3 -33 -9 -33 -12 0 -14 -7 -9 -30 9
-43 -7 -37 -27 10 -9 22 -21 40 -27 40 -15 0 -13 -21 4 -44 24 -32 18 -42 -45
-70 -88 -39 -166 -52 -240 -38 -70 13 -180 60 -180 76 0 7 7 21 15 32 17 23
19 44 4 44 -6 0 -18 -18 -27 -40 -20 -47 -36 -53 -27 -10 5 23 3 30 -9 30 -12
0 -14 7 -9 33 3 17 10 40 14 49 12 23 11 28 -6 28 -19 0 -19 2 1 48 19 47 58
88 106 113 46 24 46 24 50 -3 2 -17 10 -23 28 -23 21 0 26 5 28 33 2 24 8 32
22 32 15 0 19 -9 22 -42 3 -38 6 -43 28 -43 23 0 25 4 28 46 3 40 6 46 22 42
13 -3 20 -16 22 -37z"/>
<path d="M140 352 c0 -6 5 -14 10 -17 6 -3 10 -16 10 -29 0 -26 17 -46 40 -46
14 0 60 42 60 55 0 6 -64 33 -97 41 -13 4 -23 2 -23 -4z m70 -53 c0 -5 -4 -9
-10 -9 -5 0 -10 7 -10 16 0 8 5 12 10 9 6 -3 10 -10 10 -16z"/>
<path d="M433 342 c-56 -23 -58 -26 -32 -56 35 -40 79 -29 79 20 0 13 5 26 10
29 14 9 12 25 -2 24 -7 0 -32 -8 -55 -17z m13 -49 c-10 -10 -19 5 -10 18 6 11
8 11 12 0 2 -7 1 -15 -2 -18z"/>
<path d="M243 252 c-23 -15 -43 -30 -43 -34 0 -16 34 -7 66 17 18 14 42 25 54
25 12 0 36 -11 54 -25 32 -24 66 -33 66 -17 -1 16 -93 62 -123 61 -18 0 -51
-13 -74 -27z"/>
<path d="M281 236 c-15 -18 -7 -52 14 -60 25 -9 18 -45 -10 -52 -14 -3 -30
-15 -36 -26 -15 -28 -4 -33 20 -9 12 12 34 21 51 21 17 0 39 -9 51 -21 24 -24
35 -19 20 9 -6 11 -22 23 -36 26 -31 8 -32 32 -3 63 17 19 20 28 12 41 -14 22
-67 27 -83 8z m59 -26 c0 -5 -9 -10 -20 -10 -11 0 -20 5 -20 10 0 6 9 10 20
10 11 0 20 -4 20 -10z"/>
<path d="M130 202 c0 -11 49 -26 58 -17 8 7 0 12 -31 20 -16 4 -27 3 -27 -3z"/>
<path d="M468 203 c-10 -2 -18 -9 -18 -15 0 -6 10 -8 23 -4 12 3 25 6 30 6 4
0 7 5 7 10 0 10 -12 11 -42 3z"/>
<path d="M130 160 c0 -5 14 -10 30 -10 17 0 30 5 30 10 0 6 -13 10 -30 10 -16
0 -30 -4 -30 -10z"/>
<path d="M450 160 c0 -5 14 -10 30 -10 17 0 30 5 30 10 0 6 -13 10 -30 10 -16
0 -30 -4 -30 -10z"/>
<path d="M148 133 c-10 -2 -18 -9 -18 -15 0 -6 10 -8 23 -4 12 3 25 6 30 6 4
0 7 5 7 10 0 10 -12 11 -42 3z"/>
<path d="M450 132 c0 -11 49 -26 58 -17 8 7 0 12 -31 20 -16 4 -27 3 -27 -3z"/>
<path d="M170 551 c0 -5 9 -11 20 -14 11 -3 20 -12 20 -21 0 -9 5 -16 10 -16
14 0 13 33 -2 48 -14 14 -48 16 -48 3z"/>
</g>
</svg>
